<?xml version="1.0" encoding="UTF-8"?>
<svg xmlns="http://www.w3.org/2000/svg" width="110" height="32" viewBox="0 0 110 32" fill="none">
  <rect x="0.141846" width="109.028" height="32" rx="5.09607" fill="#171921"></rect>
  <g clip-path="url(#clip0_2253_9884)">
    <path d="M23.9049 6.71428V24.9378L16.0942 21.8992L8.2847 24.9378V6.71428H23.9049Z" fill="#20222A"></path>
    <path d="M23.3446 7.30545V24.0888L16.3999 21.3958L16.1424 21.2961L15.8849 21.3958L8.94016 24.0888V7.30545H23.3446ZM23.999 6.71428H8.2847V24.9851L16.1413 21.9386L23.9979 24.9851V6.71428H23.999Z" fill="#E3E3E4"></path>
    <path d="M22.603 8.01596V22.9853L16.0942 20.4893L9.58621 22.9853V8.01596H22.603Z" fill="#D1D1D3"></path>
    <g opacity="0.2">
      <path opacity="0.2" d="M23.999 6.71428V12.3087L12.9353 23.1824L8.2847 24.9851V19.7532L21.5522 6.71428H23.999Z" fill="white"></path>
      <path opacity="0.2" d="M15.4635 6.71428L8.2847 13.769V11.4225L13.0758 6.71428H15.4635Z" fill="white"></path>
      <path opacity="0.2" d="M23.9987 16.7269V20.3988L20.6523 23.6879L17.9725 22.6486L23.9987 16.7269Z" fill="white"></path>
    </g>
    <path d="M18.0329 16.9722C18.0154 16.9153 17.9818 16.8651 17.9364 16.8283C17.891 16.7916 17.8359 16.7699 17.7784 16.7661L16.7431 16.692L16.3597 15.6886C16.3387 15.6334 16.3023 15.5859 16.2551 15.5524C16.2078 15.5189 16.152 15.5008 16.0948 15.5006V15.5006C16.0375 15.5008 15.9817 15.5189 15.9345 15.5524C15.8872 15.5859 15.8508 15.6334 15.8298 15.6886L15.4394 16.6974L14.4111 16.7661C14.3537 16.7701 14.2988 16.7919 14.2534 16.8286C14.208 16.8654 14.1743 16.9154 14.1567 16.9722C14.1385 17.0299 14.1375 17.0919 14.1536 17.1503C14.1698 17.2086 14.2024 17.2606 14.2473 17.2995L15.0386 17.9937L14.8033 18.9537C14.787 19.0186 14.7899 19.0871 14.8117 19.1503C14.8334 19.2135 14.873 19.2685 14.9253 19.308C14.976 19.3458 15.0364 19.367 15.0988 19.3689C15.1613 19.3709 15.2228 19.3534 15.2756 19.3189L16.093 18.7819H16.0965L16.9767 19.3586C17.0218 19.3891 17.0745 19.4054 17.1283 19.4057C17.1723 19.4053 17.2156 19.3945 17.2549 19.3741C17.2942 19.3536 17.3284 19.3241 17.355 19.2878C17.3816 19.2515 17.3998 19.2093 17.4083 19.1646C17.4167 19.1198 17.4151 19.0736 17.4037 19.0296L17.1544 17.9792L17.9422 17.2995C17.9871 17.2606 18.0197 17.2086 18.0359 17.1503C18.0521 17.0919 18.051 17.0299 18.0329 16.9722Z" fill="#171921"></path>
    <g style="mix-blend-mode:multiply" opacity="0.3">
      <path d="M24.7643 9.6658H7.51938V15.3191H24.7643V9.6658Z" fill="#F15725"></path>
    </g>
    <path d="M26.1418 14.5104L24.7655 15.8378V14.5104H26.1418Z" fill="#B80736"></path>
    <path d="M6.14185 14.5104L7.51938 15.8378V14.5104H6.14185Z" fill="#B80736"></path>
    <path d="M26.1418 8.85715H6.14185V14.5104H26.1418V8.85715Z" fill="#E5443C"></path>
    <g style="mix-blend-mode:overlay" opacity="0.3">
      <g style="mix-blend-mode:overlay">
        <path d="M26.1418 8.85715V11.7762L23.7807 14.5104H14.8646L19.7496 8.85715H26.1418Z" fill="white"></path>
      </g>
      <g style="mix-blend-mode:overlay">
        <path d="M13.1127 8.85715L8.2314 14.5104H6.14185V13.9061L10.4959 8.85715H13.1127Z" fill="white"></path>
      </g>
    </g>
    <path d="M18.4661 10.3384V13.0965H17.8241V10.991H17.8085L17.2133 11.3514V10.8005L17.9275 10.3384H18.4661Z" fill="#F5F4F0"></path>
    <path d="M20.1552 13.0965C19.923 13.0965 19.7229 13.042 19.5548 12.9331C19.3867 12.8233 19.2572 12.6658 19.1662 12.4608C19.0752 12.2548 19.0302 12.0073 19.0311 11.7182C19.0319 11.429 19.0774 11.1836 19.1675 10.982C19.2585 10.7795 19.3876 10.6255 19.5548 10.52C19.7229 10.4136 19.923 10.3604 20.1552 10.3604C20.3874 10.3604 20.5875 10.4136 20.7556 10.52C20.9246 10.6255 21.0545 10.7795 21.1455 10.982C21.2365 11.1845 21.2815 11.4299 21.2806 11.7182C21.2806 12.0082 21.2352 12.2561 21.1442 12.462C21.0532 12.668 20.9237 12.8254 20.7556 12.9344C20.5884 13.0425 20.3883 13.0965 20.1552 13.0965ZM20.1552 12.5753C20.2938 12.5753 20.406 12.5054 20.4918 12.3655C20.5776 12.2248 20.62 12.009 20.6192 11.7182C20.6192 11.5277 20.5997 11.3707 20.5607 11.2471C20.5217 11.1227 20.4675 11.03 20.3982 10.9691C20.3289 10.9082 20.2479 10.8777 20.1552 10.8777C20.0174 10.8777 19.9061 10.9468 19.8212 11.0849C19.7363 11.2222 19.6934 11.4333 19.6925 11.7182C19.6917 11.9112 19.7103 12.0712 19.7484 12.1982C19.7874 12.3252 19.842 12.42 19.9122 12.4826C19.9824 12.5444 20.0634 12.5753 20.1552 12.5753Z" fill="#F5F4F0"></path>
    <path d="M23.1397 12.538V12.399C23.1397 12.2909 23.1631 12.1909 23.2099 12.0991C23.2575 12.0073 23.3264 11.9335 23.4165 11.8777C23.5066 11.822 23.6166 11.7941 23.7466 11.7941C23.8792 11.7941 23.9905 11.822 24.0806 11.8777C24.1716 11.9327 24.24 12.006 24.2859 12.0978C24.3327 12.1888 24.3561 12.2892 24.3561 12.399V12.538C24.3561 12.6461 24.3327 12.746 24.2859 12.8378C24.2392 12.9297 24.1703 13.0034 24.0793 13.0592C23.9883 13.115 23.8774 13.1429 23.7466 13.1429C23.6149 13.1429 23.504 13.115 23.4139 13.0592C23.3238 13.0034 23.2554 12.9297 23.2086 12.8378C23.1627 12.746 23.1397 12.6461 23.1397 12.538ZM23.5543 12.399V12.538C23.5543 12.5929 23.5677 12.6457 23.5946 12.6963C23.6223 12.7469 23.673 12.7722 23.7466 12.7722C23.822 12.7722 23.8727 12.7478 23.8987 12.6988C23.9247 12.6491 23.9376 12.5955 23.9376 12.538V12.399C23.9376 12.3415 23.9251 12.2874 23.9 12.2368C23.8757 12.1853 23.8246 12.1596 23.7466 12.1596C23.6738 12.1596 23.6236 12.1853 23.5959 12.2368C23.5681 12.2874 23.5543 12.3415 23.5543 12.399ZM21.7595 11.0296V10.8906C21.7595 10.7808 21.7834 10.6804 21.831 10.5895C21.8795 10.4976 21.9488 10.4243 22.0389 10.3694C22.1291 10.3136 22.2382 10.2857 22.3664 10.2857C22.499 10.2857 22.6103 10.3136 22.7004 10.3694C22.7914 10.4243 22.8603 10.4976 22.9071 10.5895C22.9539 10.6804 22.9773 10.7808 22.9773 10.8906V11.0296C22.9773 11.1394 22.9534 11.2398 22.9058 11.3308C22.859 11.4217 22.7901 11.4942 22.6991 11.5483C22.6082 11.6023 22.4973 11.6294 22.3664 11.6294C22.2356 11.6294 22.1247 11.6019 22.0338 11.547C21.9436 11.4921 21.8752 11.4191 21.8284 11.3282C21.7825 11.2372 21.7595 11.1377 21.7595 11.0296ZM22.178 10.8906V11.0296C22.178 11.0871 22.1914 11.1407 22.2183 11.1905C22.246 11.2394 22.2954 11.2638 22.3664 11.2638C22.4427 11.2638 22.4934 11.2394 22.5185 11.1905C22.5445 11.1407 22.5575 11.0871 22.5575 11.0296V10.8906C22.5575 10.8331 22.5454 10.7791 22.5211 10.7284C22.4968 10.677 22.4453 10.6512 22.3664 10.6512C22.2937 10.6512 22.2439 10.6774 22.217 10.7297C22.191 10.7821 22.178 10.8357 22.178 10.8906ZM21.8914 13.0965L23.8436 10.3384H24.1984L22.2462 13.0965H21.8914Z" fill="#F5F4F0"></path>
    <path d="M7.92755 10.8696V10.3237H10.2987V10.8696H9.44802V13.1048H8.77956V10.8696H7.92755Z" fill="white"></path>
    <path d="M13.5353 11.7143C13.5353 12.0203 13.4759 12.2797 13.3572 12.4924C13.2385 12.7051 13.0778 12.8667 12.875 12.9772C12.6732 13.0876 12.4468 13.1429 12.1956 13.1429C11.9436 13.1429 11.7167 13.0872 11.5148 12.9758C11.313 12.8645 11.1528 12.7029 11.034 12.491C10.9162 12.2783 10.8573 12.0194 10.8573 11.7143C10.8573 11.4083 10.9162 11.1489 11.034 10.9362C11.1528 10.7234 11.313 10.5618 11.5148 10.4514C11.7167 10.3409 11.9436 10.2857 12.1956 10.2857C12.4468 10.2857 12.6732 10.3409 12.875 10.4514C13.0778 10.5618 13.2385 10.7234 13.3572 10.9362C13.4759 11.1489 13.5353 11.4083 13.5353 11.7143ZM12.8422 11.7143C12.8422 11.5332 12.8161 11.3802 12.7641 11.2553C12.713 11.1304 12.639 11.0358 12.5422 10.9715C12.4463 10.9072 12.3308 10.8751 12.1956 10.8751C12.0614 10.8751 11.9459 10.9072 11.8491 10.9715C11.7523 11.0358 11.6778 11.1304 11.6258 11.2553C11.5747 11.3802 11.5491 11.5332 11.5491 11.7143C11.5491 11.8954 11.5747 12.0483 11.6258 12.1733C11.6778 12.2982 11.7523 12.3928 11.8491 12.4571C11.9459 12.5214 12.0614 12.5535 12.1956 12.5535C12.3308 12.5535 12.4463 12.5214 12.5422 12.4571C12.639 12.3928 12.713 12.2982 12.7641 12.1733C12.8161 12.0483 12.8422 11.8954 12.8422 11.7143Z" fill="white"></path>
    <path d="M14.3169 13.1048V10.3237H15.4757C15.6858 10.3237 15.867 10.3645 16.0196 10.446C16.173 10.5265 16.2912 10.6392 16.3743 10.7841C16.4574 10.928 16.499 11.0955 16.499 11.2865C16.499 11.4785 16.4565 11.6464 16.3716 11.7903C16.2876 11.9334 16.1675 12.0443 16.0113 12.123C15.8552 12.2018 15.6698 12.2412 15.4552 12.2412H14.7402V11.7116H15.3292C15.4315 11.7116 15.5168 11.6939 15.5853 11.6586C15.6547 11.6233 15.7072 11.574 15.7429 11.5106C15.7785 11.4463 15.7963 11.3716 15.7963 11.2865C15.7963 11.2005 15.7785 11.1263 15.7429 11.0638C15.7072 11.0005 15.6547 10.9516 15.5853 10.9172C15.5159 10.8828 15.4305 10.8656 15.3292 10.8656H14.9949V13.1048H14.3169Z" fill="white"></path>
  </g>
  <path d="M35.3382 10.2356C35.1874 10.2356 35.0488 10.1989 34.9224 10.1255C34.796 10.0521 34.6961 9.95225 34.6228 9.82587C34.5494 9.69949 34.5127 9.56088 34.5127 9.41003V6.65816C34.5127 6.50731 34.5494 6.3687 34.6228 6.24232C34.6961 6.11593 34.796 6.01605 34.9224 5.94267C35.0488 5.86929 35.1874 5.83259 35.3382 5.83259H38.9035V6.57254H35.4667C35.4014 6.57254 35.3484 6.59293 35.3077 6.6337C35.2669 6.67039 35.2465 6.72135 35.2465 6.78658V9.28161C35.2465 9.34684 35.2669 9.39984 35.3077 9.44061C35.3484 9.4773 35.4014 9.49565 35.4667 9.49565H38.9035V10.2356H35.3382ZM41.6454 10.2356C41.4946 10.2356 41.358 10.1989 41.2357 10.1255C41.1134 10.0481 41.0135 9.94818 40.9361 9.82587C40.8627 9.70357 40.826 9.56699 40.826 9.41615V7.50818C40.826 7.35734 40.8627 7.22076 40.9361 7.09846C41.0135 6.97615 41.1134 6.87831 41.2357 6.80492C41.358 6.72746 41.4946 6.68873 41.6454 6.68873H43.6084C43.7634 6.68873 43.902 6.72746 44.0243 6.80492C44.1466 6.87831 44.2444 6.97615 44.3178 7.09846C44.3912 7.22076 44.4279 7.35734 44.4279 7.50818V8.82908H41.5537V9.39169C41.5537 9.4243 41.5639 9.45284 41.5843 9.4773C41.6087 9.49769 41.6373 9.50788 41.6699 9.50788H44.4279V10.2356H41.6454ZM41.5537 8.16252H43.7002V7.53264C43.7002 7.50003 43.6879 7.47353 43.6635 7.45314C43.6431 7.42868 43.6166 7.41645 43.584 7.41645H41.6699C41.6373 7.41645 41.6087 7.42868 41.5843 7.45314C41.5639 7.47353 41.5537 7.50003 41.5537 7.53264V8.16252ZM46.3758 10.2356V7.50818C46.3758 7.35734 46.4124 7.22076 46.4858 7.09846C46.5633 6.97615 46.6632 6.87831 46.7855 6.80492C46.9119 6.72746 47.0484 6.68873 47.1952 6.68873H49.1704V7.41645H47.2197C47.187 7.41645 47.1585 7.42868 47.134 7.45314C47.1137 7.47353 47.1035 7.50003 47.1035 7.53264V10.2356H46.3758ZM51.7178 10.2356C51.5669 10.2356 51.4283 10.1989 51.3019 10.1255C51.1796 10.0481 51.0818 9.94818 51.0084 9.82587C50.935 9.70357 50.8983 9.56699 50.8983 9.41615V5.58187H51.6261V6.68873H53.0448V7.41645H51.6261V9.39169C51.6261 9.4243 51.6362 9.45284 51.6566 9.4773C51.6811 9.49769 51.7096 9.50788 51.7422 9.50788H53.0448V10.2356H51.7178ZM54.8891 10.2356V6.68873H55.6169V10.2356H54.8891ZM54.8891 6.26066V5.52683H55.6169V6.26066H54.8891ZM57.6028 10.2356V5.83259H58.3427V7.66718H59.4679L61.0029 5.83259H61.8284V6.00994L60.1284 8.03409L61.8284 10.0583V10.2356H61.0029L59.4679 8.40101H58.3427V10.2356H57.6028ZM68.5597 10.2356V6.64593H66.7618V5.83259H71.1648V6.64593H69.373V10.2356H68.5597ZM73.4524 10.2356C73.2975 10.2356 73.1568 10.1969 73.0304 10.1194C72.9041 10.0419 72.8021 9.94002 72.7247 9.81364C72.6472 9.68726 72.6085 9.54661 72.6085 9.39169V7.53264C72.6085 7.37772 72.6472 7.23707 72.7247 7.11069C72.8021 6.9843 72.9041 6.88238 73.0304 6.80492C73.1568 6.72746 73.2975 6.68873 73.4524 6.68873H75.3665C75.5214 6.68873 75.6621 6.72746 75.7884 6.80492C75.9189 6.88238 76.0208 6.9843 76.0942 7.11069C76.1717 7.23707 76.2104 7.37772 76.2104 7.53264V9.39169C76.2104 9.54661 76.1717 9.68726 76.0942 9.81364C76.0208 9.94002 75.9209 10.0419 75.7946 10.1194C75.6682 10.1969 75.5255 10.2356 75.3665 10.2356H73.4524ZM73.483 9.43449H75.3359C75.3563 9.43449 75.3726 9.42838 75.3848 9.41615C75.4011 9.39984 75.4093 9.38149 75.4093 9.36111V7.56322C75.4093 7.54283 75.4011 7.52653 75.3848 7.5143C75.3726 7.49799 75.3563 7.48983 75.3359 7.48983H73.483C73.4626 7.48983 73.4442 7.49799 73.4279 7.5143C73.4157 7.52653 73.4096 7.54283 73.4096 7.56322V9.36111C73.4096 9.38149 73.4157 9.39984 73.4279 9.41615C73.4442 9.42838 73.4626 9.43449 73.483 9.43449ZM78.2063 11.6421V6.68873H80.9643C81.1192 6.68873 81.2599 6.72746 81.3863 6.80492C81.5167 6.88238 81.6186 6.9843 81.692 7.11069C81.7695 7.23707 81.8082 7.37772 81.8082 7.53264V9.39169C81.8082 9.54661 81.7695 9.68726 81.692 9.81364C81.6186 9.94002 81.5167 10.0419 81.3863 10.1194C81.2599 10.1969 81.1192 10.2356 80.9643 10.2356H79.0074V11.6421H78.2063ZM79.0808 9.43449H80.9337C80.9541 9.43449 80.9704 9.42838 80.9827 9.41615C80.999 9.39984 81.0071 9.38149 81.0071 9.36111V7.56322C81.0071 7.54283 80.999 7.52653 80.9827 7.5143C80.9704 7.49799 80.9541 7.48983 80.9337 7.48983H79.0808C79.0604 7.48983 79.0421 7.49799 79.0258 7.5143C79.0135 7.52653 79.0074 7.54283 79.0074 7.56322V9.36111C79.0074 9.38149 79.0135 9.39984 79.0258 9.41615C79.0421 9.42838 79.0604 9.43449 79.0808 9.43449ZM87.9096 10.2356V6.98838L87.561 7.41645H86.5031L87.8301 5.83259H88.7168V10.2356H87.9096ZM91.4236 10.2356C91.2687 10.2356 91.128 10.1948 91.0016 10.1133C90.8752 10.0277 90.7733 9.9176 90.6959 9.78306C90.6184 9.64853 90.5797 9.50584 90.5797 9.355V6.69485C90.5797 6.53585 90.6184 6.39316 90.6959 6.26678C90.7733 6.13632 90.8752 6.03236 91.0016 5.9549C91.128 5.87336 91.2687 5.83259 91.4236 5.83259H94.096C94.2509 5.83259 94.3915 5.87336 94.5179 5.9549C94.6443 6.03236 94.7462 6.13632 94.8237 6.26678C94.9011 6.39316 94.9399 6.53585 94.9399 6.69485V9.355C94.9399 9.50584 94.9011 9.64853 94.8237 9.78306C94.7462 9.9176 94.6443 10.0277 94.5179 10.1133C94.3915 10.1948 94.2509 10.2356 94.096 10.2356H91.4236ZM91.7477 9.39169H94.0654C94.0858 9.39169 94.1021 9.38557 94.1143 9.37334C94.1306 9.35703 94.1388 9.33869 94.1388 9.3183V7.39811L91.7477 9.39169ZM91.3808 8.64562L93.7719 6.65204H91.4542C91.4338 6.65204 91.4154 6.66019 91.3991 6.6765C91.3869 6.68873 91.3808 6.70504 91.3808 6.72542V8.64562ZM97.5021 10.2356V9.36723L101.63 5.85094L101.862 5.83259V6.69485L97.7467 10.205L97.5021 10.2356ZM97.7773 7.93625C97.6223 7.93625 97.4837 7.9016 97.3614 7.83229C97.2391 7.75891 97.1433 7.6631 97.074 7.54487C97.0047 7.42257 96.9701 7.28395 96.9701 7.12903V6.66427C96.9701 6.50935 97.0047 6.37278 97.074 6.25455C97.1433 6.13224 97.2391 6.03847 97.3614 5.97324C97.4837 5.90394 97.6223 5.86929 97.7773 5.86929H98.2971C98.452 5.86929 98.5886 5.90394 98.7068 5.97324C98.8291 6.03847 98.9249 6.13224 98.9942 6.25455C99.0635 6.37278 99.0982 6.50935 99.0982 6.66427V7.12903C99.0982 7.28395 99.0635 7.42257 98.9942 7.54487C98.9249 7.6631 98.8291 7.75891 98.7068 7.83229C98.5886 7.9016 98.452 7.93625 98.2971 7.93625H97.7773ZM97.7528 7.28803H98.3154C98.3521 7.28803 98.3847 7.2758 98.4133 7.25134C98.4418 7.2228 98.4561 7.18815 98.4561 7.14738V6.65204C98.4561 6.61127 98.4418 6.57866 98.4133 6.5542C98.3847 6.52566 98.3521 6.51139 98.3154 6.51139H97.7528C97.712 6.51139 97.6774 6.52566 97.6488 6.5542C97.6244 6.57866 97.6122 6.61127 97.6122 6.65204V7.14738C97.6122 7.18815 97.6244 7.2228 97.6488 7.25134C97.6774 7.2758 97.712 7.28803 97.7528 7.28803ZM100.951 10.1989C100.8 10.1989 100.664 10.1643 100.541 10.0949C100.423 10.0256 100.329 9.93187 100.26 9.81364C100.191 9.69134 100.156 9.55272 100.156 9.3978V8.93304C100.156 8.77812 100.191 8.64155 100.26 8.52332C100.329 8.40101 100.423 8.30521 100.541 8.2359C100.664 8.16659 100.8 8.13194 100.951 8.13194H101.477C101.632 8.13194 101.769 8.16659 101.887 8.2359C102.009 8.30521 102.105 8.40101 102.174 8.52332C102.243 8.64155 102.278 8.77812 102.278 8.93304V9.3978C102.278 9.55272 102.243 9.69134 102.174 9.81364C102.105 9.93187 102.009 10.0256 101.887 10.0949C101.769 10.1643 101.632 10.1989 101.477 10.1989H100.951ZM100.939 9.5568H101.495C101.536 9.5568 101.569 9.54457 101.593 9.52011C101.622 9.49157 101.636 9.45692 101.636 9.41615V8.9147C101.636 8.87393 101.622 8.84131 101.593 8.81685C101.569 8.78831 101.536 8.77404 101.495 8.77404H100.939C100.898 8.77404 100.863 8.78831 100.835 8.81685C100.81 8.84131 100.798 8.87393 100.798 8.9147V9.41615C100.798 9.45692 100.81 9.49157 100.835 9.52011C100.863 9.54457 100.898 9.5568 100.939 9.5568Z" fill="#F3F3F4"></path>
  <path d="M37.2632 24.7644L34.439 14.7576H36.3885L38.1915 22.1112H38.2844L40.2095 14.7576H41.9832L43.9132 22.1161H44.0011L45.8041 14.7576H47.7537L44.9295 24.7644H43.1412L41.1379 17.743H41.0597L39.0515 24.7644H37.2632ZM50.3263 24.9159C49.8507 24.9159 49.4223 24.8312 49.0412 24.6618C48.6633 24.4892 48.3637 24.2351 48.1422 23.8996C47.9239 23.5641 47.8148 23.1504 47.8148 22.6585C47.8148 22.235 47.893 21.8849 48.0493 21.608C48.2057 21.3311 48.419 21.1096 48.6894 20.9435C48.9598 20.7773 49.2643 20.6519 49.6031 20.5672C49.9451 20.4793 50.2986 20.4158 50.6634 20.3767C51.1032 20.3311 51.4598 20.2903 51.7335 20.2545C52.0071 20.2154 52.2058 20.1568 52.3296 20.0786C52.4566 19.9972 52.5201 19.8718 52.5201 19.7024V19.6731C52.5201 19.305 52.411 19.0199 52.1928 18.818C51.9745 18.616 51.6602 18.515 51.2497 18.515C50.8165 18.515 50.4728 18.6095 50.2188 18.7984C49.9679 18.9874 49.7986 19.2105 49.7106 19.4678L48.0591 19.2333C48.1894 18.7773 48.4044 18.3961 48.7041 18.0899C49.0037 17.7805 49.3702 17.5492 49.8034 17.3961C50.2367 17.2398 50.7155 17.1616 51.24 17.1616C51.6015 17.1616 51.9615 17.2039 52.3198 17.2886C52.6781 17.3733 53.0055 17.5134 53.3019 17.7088C53.5984 17.901 53.8361 18.1632 54.0153 18.4955C54.1977 18.8278 54.2889 19.2431 54.2889 19.7415V24.7644H52.5885V23.7334H52.5299C52.4224 23.9419 52.2709 24.1374 52.0755 24.3198C51.8833 24.4989 51.6406 24.6439 51.3475 24.7546C51.0576 24.8621 50.7172 24.9159 50.3263 24.9159ZM50.7856 23.6162C51.1406 23.6162 51.4484 23.5461 51.709 23.4061C51.9696 23.2627 52.17 23.0738 52.31 22.8393C52.4534 22.6047 52.525 22.349 52.525 22.0722V21.1878C52.4697 21.2334 52.3752 21.2757 52.2416 21.3148C52.1113 21.3539 51.9647 21.3881 51.8019 21.4174C51.639 21.4467 51.4778 21.4728 51.3181 21.4956C51.1585 21.5184 51.0201 21.5379 50.9028 21.5542C50.639 21.5901 50.4028 21.6487 50.1943 21.7301C49.9859 21.8116 49.8214 21.9256 49.7008 22.0722C49.5803 22.2155 49.52 22.4012 49.52 22.6292C49.52 22.9549 49.6389 23.2009 49.8767 23.367C50.1145 23.5331 50.4175 23.6162 50.7856 23.6162ZM59.8152 17.2593V18.6274H55.5007V17.2593H59.8152ZM56.5659 15.4612H58.3347V22.507C58.3347 22.7448 58.3705 22.9272 58.4421 23.0543C58.5171 23.1781 58.6148 23.2627 58.7353 23.3083C58.8558 23.354 58.9894 23.3768 59.136 23.3768C59.2467 23.3768 59.3477 23.3686 59.4389 23.3523C59.5334 23.336 59.6051 23.3214 59.6539 23.3083L59.952 24.6911C59.8575 24.7237 59.7223 24.7595 59.5464 24.7986C59.3738 24.8377 59.162 24.8605 58.9112 24.867C58.4682 24.8801 58.0692 24.8133 57.7141 24.6667C57.3591 24.5169 57.0773 24.2856 56.8688 23.9729C56.6636 23.6602 56.5626 23.2693 56.5659 22.8002V15.4612ZM64.4875 24.911C63.7383 24.911 63.095 24.7465 62.5575 24.4175C62.0233 24.0885 61.6112 23.6341 61.3213 23.0543C61.0347 22.4712 60.8913 21.8002 60.8913 21.0412C60.8913 20.2789 61.0379 19.6063 61.3311 19.0232C61.6242 18.4369 62.0379 17.9808 62.5722 17.6551C63.1096 17.3261 63.7448 17.1616 64.4778 17.1616C65.0869 17.1616 65.626 17.274 66.0951 17.4987C66.5674 17.7202 66.9436 18.0346 67.2238 18.4417C67.5039 18.8457 67.6635 19.318 67.7026 19.8587H66.012C65.9436 19.4972 65.7807 19.1958 65.5234 18.9548C65.2693 18.7105 64.9289 18.5883 64.5022 18.5883C64.1406 18.5883 63.823 18.6861 63.5494 18.8815C63.2758 19.0737 63.0624 19.3506 62.9093 19.7121C62.7595 20.0737 62.6845 20.507 62.6845 21.0119C62.6845 21.5233 62.7595 21.963 62.9093 22.3311C63.0591 22.696 63.2692 22.9777 63.5396 23.1764C63.8132 23.3719 64.1341 23.4696 64.5022 23.4696C64.7628 23.4696 64.9957 23.4207 65.2009 23.323C65.4094 23.222 65.5837 23.0771 65.7237 22.8881C65.8638 22.6992 65.9599 22.4696 66.012 22.1992H67.7026C67.6603 22.7302 67.5039 23.2009 67.2335 23.6113C66.9632 24.0185 66.5951 24.3377 66.1293 24.569C65.6635 24.797 65.1162 24.911 64.4875 24.911ZM70.9238 20.3669V24.7644H69.155V14.7576H70.8847V18.5346H70.9727C71.1486 18.1111 71.4206 17.7772 71.7887 17.5329C72.16 17.2854 72.6323 17.1616 73.2056 17.1616C73.7268 17.1616 74.1812 17.2707 74.5689 17.489C74.9565 17.7072 75.2562 18.0264 75.4679 18.4466C75.6829 18.8668 75.7904 19.3799 75.7904 19.9858V24.7644H74.0216V20.2594C74.0216 19.7545 73.8913 19.362 73.6307 19.0818C73.3734 18.7984 73.0118 18.6567 72.546 18.6567C72.2333 18.6567 71.9532 18.7251 71.7056 18.862C71.4613 18.9955 71.2691 19.1893 71.129 19.4434C70.9922 19.6975 70.9238 20.0053 70.9238 20.3669ZM80.916 24.911C80.1635 24.911 79.5136 24.7546 78.9664 24.4419C78.4224 24.126 78.0038 23.6797 77.7107 23.1031C77.4175 22.5233 77.2709 21.8409 77.2709 21.0558C77.2709 20.2838 77.4175 19.6063 77.7107 19.0232C78.0071 18.4369 78.4208 17.9808 78.9517 17.6551C79.4827 17.3261 80.1065 17.1616 80.8231 17.1616C81.2857 17.1616 81.7222 17.2365 82.1326 17.3863C82.5463 17.5329 82.9111 17.7609 83.2271 18.0704C83.5463 18.3799 83.7972 18.774 83.9796 19.2528C84.162 19.7284 84.2532 20.2952 84.2532 20.9532V21.4956H78.1015V20.3034H82.5577C82.5545 19.9646 82.4812 19.6633 82.3378 19.3994C82.1945 19.1323 81.9942 18.9222 81.7368 18.7691C81.4828 18.616 81.1863 18.5395 80.8476 18.5395C80.486 18.5395 80.1684 18.6274 79.8948 18.8033C79.6211 18.976 79.4078 19.204 79.2547 19.4874C79.1048 19.7675 79.0283 20.0753 79.025 20.4109V21.4516C79.025 21.8881 79.1048 22.2627 79.2645 22.5754C79.4241 22.8849 79.6472 23.1227 79.9339 23.2888C80.2205 23.4517 80.556 23.5331 80.9404 23.5331C81.1977 23.5331 81.4306 23.4973 81.6391 23.4256C81.8476 23.3507 82.0284 23.2416 82.1815 23.0982C82.3346 22.9549 82.4502 22.7774 82.5284 22.5657L84.1799 22.7513C84.0757 23.1878 83.877 23.5689 83.5838 23.8947C83.2939 24.2172 82.9225 24.468 82.4698 24.6472C82.017 24.8231 81.499 24.911 80.916 24.911ZM88.5347 24.8963C87.9451 24.8963 87.4174 24.7449 86.9516 24.4419C86.4858 24.139 86.1177 23.6992 85.8473 23.1227C85.5769 22.5461 85.4418 21.8458 85.4418 21.0216C85.4418 20.1877 85.5786 19.4841 85.8522 18.9108C86.1291 18.3343 86.5021 17.8994 86.9711 17.6062C87.4402 17.3098 87.963 17.1616 88.5396 17.1616C88.9793 17.1616 89.3409 17.2365 89.6243 17.3863C89.9077 17.5329 90.1325 17.7105 90.2986 17.9189C90.4647 18.1241 90.5934 18.318 90.6846 18.5004H90.7579V14.7576H92.5316V24.7644H90.7921V23.582H90.6846C90.5934 23.7644 90.4615 23.9582 90.2888 24.1634C90.1162 24.3654 89.8881 24.538 89.6048 24.6814C89.3214 24.8247 88.9647 24.8963 88.5347 24.8963ZM89.0282 23.4452C89.4028 23.4452 89.722 23.3442 89.9859 23.1422C90.2497 22.937 90.4501 22.652 90.5869 22.2871C90.7237 21.9223 90.7921 21.4972 90.7921 21.0119C90.7921 20.5265 90.7237 20.1047 90.5869 19.7463C90.4533 19.388 90.2546 19.1095 89.9908 18.9108C89.7302 18.7121 89.4093 18.6128 89.0282 18.6128C88.634 18.6128 88.305 18.7154 88.0412 18.9206C87.7773 19.1258 87.5786 19.4092 87.4451 19.7708C87.3115 20.1324 87.2447 20.546 87.2447 21.0119C87.2447 21.4809 87.3115 21.8995 87.4451 22.2676C87.5819 22.6324 87.7822 22.9207 88.0461 23.1324C88.3132 23.3409 88.6406 23.4452 89.0282 23.4452Z" fill="#F3F3F4"></path>
  <defs>
    <clipPath id="clip0_2253_9884">
      <rect width="20" height="20" fill="white" transform="translate(6.14185 6)"></rect>
    </clipPath>
  </defs>
</svg>
