<?xml version="1.0" encoding="UTF-8"?>
<svg xmlns="http://www.w3.org/2000/svg" width="24" height="24" viewBox="0 0 24 24" fill="none">
  <g clip-path="url(#clip0_2047_16820)">
    <g clip-path="url(#clip1_2047_16820)">
      <path d="M11.3912 11.3918C11.8035 11.2236 12.1565 10.9365 12.4053 10.5672C12.654 10.1978 12.7874 9.76286 12.7884 9.31755C12.7861 8.7181 12.547 8.14384 12.1231 7.71996C11.6992 7.29608 11.125 7.05695 10.5255 7.05469C10.192 7.05394 9.86245 7.1272 9.56067 7.26919C9.25888 7.41118 8.99236 7.61837 8.78032 7.87582C8.56828 8.13327 8.41601 8.43455 8.33449 8.75796C8.25297 9.08137 8.24422 9.41884 8.30889 9.74603C8.37355 10.0732 8.51001 10.382 8.70843 10.6501C8.90685 10.9182 9.16228 11.1389 9.45631 11.2963C9.75034 11.4537 10.0756 11.544 10.4087 11.5605C10.7419 11.577 11.0745 11.5194 11.3827 11.3918H11.3912ZM9.32551 8.82041C9.4246 8.58331 9.59115 8.38055 9.80449 8.23731C10.0178 8.09407 10.2686 8.01666 10.5255 8.01469C10.8726 8.01694 11.2049 8.15583 11.4503 8.40129C11.6958 8.64674 11.8347 8.979 11.8369 9.32612C11.8384 9.58386 11.7623 9.83608 11.6187 10.0501C11.475 10.264 11.2703 10.4299 11.0312 10.5261C10.7914 10.6304 10.5257 10.6601 10.2687 10.6113C10.0118 10.5625 9.77544 10.4375 9.5905 10.2526C9.40556 10.0676 9.28056 9.8313 9.23177 9.57434C9.18298 9.31739 9.21266 9.05169 9.31694 8.81184L9.32551 8.82041Z" fill="white"></path>
      <path d="M11.9999 0.000293561C9.77576 0.00981055 7.59799 0.637292 5.70975 1.81269C3.8215 2.98809 2.29708 4.66515 1.30666 6.65666C0.316242 8.64817 -0.101201 10.8757 0.100932 13.0907C0.303066 15.3057 1.11682 17.421 2.45136 19.2003C3.87295 16.87 4.67274 14.2138 4.77421 11.486C4.91136 9.20601 5.44279 7.30315 9.3085 6.23172C10.189 6.05491 11.0984 6.08424 11.9656 6.31744C12.9771 6.01744 14.1599 6.12029 14.6742 7.01172C14.7353 7.09463 14.7817 7.18741 14.8114 7.28601C15.5828 7.59458 16.3456 7.89458 17.0828 8.14315C20.8285 9.11172 20.6142 11.1432 18.8571 12.8574C18.1603 13.1285 17.444 13.3463 16.7142 13.5089C16.0079 13.6443 15.2905 13.7132 14.5714 13.7146H14.2714C13.4695 13.7053 12.6848 13.4803 11.9999 13.0632H11.9571C11.9038 13.0689 11.8533 13.0898 11.8114 13.1232C11.8 13.1343 11.7909 13.1477 11.7847 13.1624C11.7785 13.1771 11.7753 13.1929 11.7753 13.2089C11.7753 13.2248 11.7785 13.2406 11.7847 13.2554C11.7909 13.2701 11.8 13.2834 11.8114 13.2946C12.4579 13.9521 13.3326 14.3357 14.2542 14.366C14.3998 14.3746 14.5458 14.3746 14.6914 14.366C15.43 14.3477 16.1637 14.2412 16.8771 14.0489C17.3056 13.9289 17.7342 13.8003 18.0942 13.6546L17.3742 14.3574C15.9256 15.8403 12.6342 19.3117 14.3399 23.786C17.2802 23.2232 19.9039 21.5816 21.6961 19.1837C23.4882 16.7857 24.3193 13.8044 24.0262 10.8251C23.7331 7.84585 22.337 5.0837 20.1119 3.08092C17.8868 1.07814 14.9935 -0.020635 11.9999 0.000293561Z" fill="white"></path>
      <path d="M18.1798 11.0753C18.1798 10.9464 18.1416 10.8205 18.07 10.7133C17.9984 10.6062 17.8967 10.5227 17.7777 10.4734C17.6586 10.4241 17.5277 10.4112 17.4013 10.4363C17.2749 10.4615 17.1589 10.5235 17.0678 10.6146C16.9766 10.7057 16.9146 10.8218 16.8895 10.9482C16.8643 11.0745 16.8772 11.2055 16.9265 11.3245C16.9758 11.4436 17.0593 11.5453 17.1665 11.6169C17.2736 11.6885 17.3995 11.7267 17.5284 11.7267C17.6139 11.7267 17.6986 11.7098 17.7777 11.6771C17.8567 11.6444 17.9285 11.5964 17.989 11.5359C18.0495 11.4754 18.0975 11.4036 18.1302 11.3245C18.163 11.2455 18.1798 11.1608 18.1798 11.0753Z" fill="white"></path>
    </g>
  </g>
  <defs>
    <clipPath id="clip0_2047_16820">
      <rect width="24" height="24" fill="white"></rect>
    </clipPath>
    <clipPath id="clip1_2047_16820">
      <rect width="24" height="24" fill="white"></rect>
    </clipPath>
  </defs>
</svg>
