<?xml version="1.0" encoding="UTF-8"?>
<svg xmlns="http://www.w3.org/2000/svg" width="24" height="24" viewBox="0 0 24 24" fill="none">
  <g clip-path="url(#clip0_2047_16809)">
    <path fill-rule="evenodd" clip-rule="evenodd" d="M20.8689 13.7442C20.4439 13.9975 19.9438 14.0291 19.5634 13.8265C19.0805 13.5691 18.8146 12.9671 18.8146 12.1271V9.61812C18.8146 8.40636 18.3073 7.54424 17.4589 7.31129C16.0217 6.91597 14.94 8.57779 14.5333 9.20063L11.9976 13.0824V8.33806C11.9689 7.24616 11.5938 6.59301 10.8804 6.39625C10.409 6.26598 9.7029 6.31845 9.01737 7.30903L3.33618 15.9217C2.57561 14.5585 2.17912 13.0405 2.18116 11.4998C2.18116 6.31122 6.58469 2.09153 11.9976 2.09153C17.4105 2.09153 21.8136 6.31257 21.8136 11.4998C21.8136 11.5088 21.816 11.5165 21.8164 11.5247C21.8169 11.5328 21.8164 11.5418 21.8164 11.5509C21.8677 12.5555 21.5233 13.3547 20.8703 13.7442H20.8689ZM23.9947 11.5007V11.4749V11.4491C23.9636 5.12976 18.5943 0 11.9971 0C5.38225 0 0 5.15871 0 11.5002C0 17.8417 5.38225 23 11.9976 23C15.0318 23.0005 17.9508 21.903 20.1541 19.9333C20.367 19.7431 20.4923 19.4817 20.5032 19.2051C20.514 18.9286 20.4095 18.6591 20.2121 18.4546C20.0197 18.2545 19.751 18.1347 19.465 18.1215C19.1791 18.1084 18.8993 18.203 18.6872 18.3845L18.6709 18.3986C16.8685 20.0104 14.4802 20.9085 11.9976 20.908C9.09929 20.908 6.49176 19.6967 4.69336 17.7762L9.81644 10.0103V13.5908C9.81644 15.3097 10.5231 15.8669 11.1152 16.0293C11.7073 16.1917 12.6142 16.0809 13.5656 14.6226L16.3839 10.3093C16.4744 10.17 16.5573 10.0501 16.6335 9.94741V12.1285C16.6335 13.7365 17.3157 15.0233 18.5047 15.6566C19.5764 16.2274 20.9239 16.1759 22.022 15.5209C23.3523 14.7257 24.0695 13.2634 23.9947 11.5007Z" fill="white"></path>
  </g>
  <defs>
    <clipPath id="clip0_2047_16809">
      <rect width="24" height="23" fill="white"></rect>
    </clipPath>
  </defs>
</svg>
