<?xml version="1.0" encoding="UTF-8"?>
<svg xmlns="http://www.w3.org/2000/svg" width="26" height="26" viewBox="0 0 26 26" fill="none">
  <path d="M19.8353 6.0497C18.4795 5.41538 17.0299 4.95439 15.5144 4.69189C15.3282 5.0284 15.1108 5.48102 14.9609 5.84107C13.3498 5.59878 11.7536 5.59878 10.1721 5.84107C10.0223 5.48102 9.79986 5.0284 9.61207 4.69189C8.0949 4.95439 6.64361 5.41708 5.28787 6.05306C2.55333 10.1853 1.81204 14.2149 2.18269 18.1873C3.99638 19.5417 5.75406 20.3645 7.48208 20.9029C7.90874 20.3157 8.28926 19.6915 8.61707 19.0336C7.99275 18.7964 7.39478 18.5036 6.82977 18.1638C6.97966 18.0527 7.12628 17.9366 7.26794 17.8171C10.7141 19.429 14.4584 19.429 17.8634 17.8171C18.0068 17.9366 18.1534 18.0527 18.3016 18.1638C17.7349 18.5053 17.1353 18.7981 16.511 19.0353C16.8388 19.6915 17.2177 20.3174 17.646 20.9046C19.3757 20.3662 21.135 19.5434 22.9487 18.1873C23.3836 13.5823 22.2058 9.58969 19.8353 6.0497ZM9.08657 15.7443C8.05206 15.7443 7.20368 14.7785 7.20368 13.6025C7.20368 12.4264 8.03395 11.459 9.08657 11.459C10.1392 11.459 10.9876 12.4247 10.9694 13.6025C10.9711 14.7785 10.1392 15.7443 9.08657 15.7443ZM16.0448 15.7443C15.0103 15.7443 14.1619 14.7785 14.1619 13.6025C14.1619 12.4264 14.9922 11.459 16.0448 11.459C17.0974 11.459 17.9458 12.4247 17.9277 13.6025C17.9277 14.7785 17.0974 15.7443 16.0448 15.7443Z" fill="white"></path>
</svg>
