<?xml version="1.0" encoding="UTF-8"?>
<svg xmlns="http://www.w3.org/2000/svg" width="26" height="26" viewBox="0 0 26 26" fill="none">
  <path d="M13.2498 8.24686C10.8562 8.24686 8.94881 10.1917 8.94881 12.5478C8.94881 14.9414 10.8562 16.8488 13.2498 16.8488C15.606 16.8488 17.5508 14.9414 17.5508 12.5478C17.5508 10.1917 15.606 8.24686 13.2498 8.24686ZM13.2498 15.3528C11.7164 15.3528 10.4448 14.1186 10.4448 12.5478C10.4448 11.0144 11.679 9.78025 13.2498 9.78025C14.7832 9.78025 16.0174 11.0144 16.0174 12.5478C16.0174 14.1186 14.7832 15.3528 13.2498 15.3528ZM18.7102 8.09726C18.7102 7.53626 18.2614 7.08746 17.7004 7.08746C17.1394 7.08746 16.6906 7.53626 16.6906 8.09726C16.6906 8.65825 17.1394 9.10705 17.7004 9.10705C18.2614 9.10705 18.7102 8.65825 18.7102 8.09726ZM21.5526 9.10705C21.4778 7.76066 21.1786 6.56386 20.2062 5.59146C19.2338 4.61906 18.037 4.31986 16.6906 4.24506C15.3068 4.17026 11.1554 4.17026 9.7716 4.24506C8.42521 4.31986 7.26581 4.61906 6.25601 5.59146C5.28361 6.56386 4.98442 7.76066 4.90962 9.10705C4.83482 10.4909 4.83482 14.6422 4.90962 16.026C4.98442 17.3724 5.28361 18.5318 6.25601 19.5416C7.26581 20.514 8.42521 20.8132 9.7716 20.888C11.1554 20.9628 15.3068 20.9628 16.6906 20.888C18.037 20.8132 19.2338 20.514 20.2062 19.5416C21.1786 18.5318 21.4778 17.3724 21.5526 16.026C21.6274 14.6422 21.6274 10.4909 21.5526 9.10705ZM19.7574 17.4846C19.4956 18.2326 18.8972 18.7936 18.1866 19.0928C17.0646 19.5416 14.4466 19.4294 13.2498 19.4294C12.0156 19.4294 9.3976 19.5416 8.31301 19.0928C7.56501 18.7936 7.00401 18.2326 6.70481 17.4846C6.25601 16.4 6.36821 13.782 6.36821 12.5478C6.36821 11.351 6.25601 8.73305 6.70481 7.61106C7.00401 6.90046 7.56501 6.33946 8.31301 6.04026C9.3976 5.59146 12.0156 5.70366 13.2498 5.70366C14.4466 5.70366 17.0646 5.59146 18.1866 6.04026C18.8972 6.30206 19.4582 6.90046 19.7574 7.61106C20.2062 8.73305 20.094 11.351 20.094 12.5478C20.094 13.782 20.2062 16.4 19.7574 17.4846Z" fill="white"></path>
</svg>
