<?xml version="1.0" encoding="UTF-8"?>
<svg xmlns="http://www.w3.org/2000/svg" width="26" height="26" viewBox="0 0 26 26" fill="none">
  <path d="M21.175 3.1416H4.9762C4.26092 3.1416 3.67188 3.77273 3.67188 4.53007V20.6448C3.67188 21.4021 4.26092 21.9912 4.9762 21.9912H21.175C21.8903 21.9912 22.5214 21.4021 22.5214 20.6448V4.53007C22.5214 3.77273 21.8903 3.1416 21.175 3.1416ZM9.35199 19.2984H6.57504V10.3364H9.35199V19.2984ZM7.96351 9.07416C7.03787 9.07416 6.32259 8.35889 6.32259 7.47532C6.32259 6.59174 7.03787 5.8344 7.96351 5.8344C8.84709 5.8344 9.56236 6.59174 9.56236 7.47532C9.56236 8.35889 8.84709 9.07416 7.96351 9.07416ZM19.8286 19.2984H17.0096V14.9226C17.0096 13.9128 17.0096 12.5664 15.5791 12.5664C14.1065 12.5664 13.8961 13.7024 13.8961 14.8805V19.2984H11.1191V10.3364H13.7699V11.5566H13.8119C14.1906 10.8413 15.1162 10.084 16.4626 10.084C19.2817 10.084 19.8286 11.9773 19.8286 14.3756V19.2984Z" fill="white"></path>
</svg>
