<?xml version="1.0" encoding="UTF-8"?>
<svg xmlns="http://www.w3.org/2000/svg" width="26" height="26" viewBox="0 0 26 26" fill="none">
  <path d="M25.2574 12.2222C25.2574 10.8472 24.142 9.7313 22.7677 9.7313C22.0906 9.7313 21.4931 9.99035 21.0549 10.4287C19.3619 9.2132 17.0117 8.41612 14.4225 8.31649L15.5578 2.99598L19.2424 3.77313C19.2823 4.7097 20.059 5.46693 21.0151 5.46693C21.991 5.46693 22.7877 4.66985 22.7877 3.69343C22.7877 2.717 21.991 1.91992 21.0151 1.91992C20.318 1.91992 19.7204 2.31846 19.4416 2.91627L15.3188 2.03949C15.1993 2.01956 15.0798 2.03948 14.9802 2.09927C14.8806 2.15905 14.8209 2.25868 14.781 2.37824L13.5262 8.31649C10.8773 8.39619 8.50715 9.17335 6.79429 10.4287C6.35612 10.0103 5.73869 9.7313 5.08143 9.7313C3.70715 9.7313 2.5918 10.8472 2.5918 12.2222C2.5918 13.2385 3.18931 14.0953 4.06566 14.4939C4.02582 14.733 4.00591 14.992 4.00591 15.2511C4.00591 19.0771 8.44741 22.1657 13.9445 22.1657C19.4416 22.1657 23.8831 19.0771 23.8831 15.2511C23.8831 14.992 23.8632 14.7529 23.8234 14.5138C24.6399 14.1152 25.2574 13.2385 25.2574 12.2222ZM8.22832 13.9957C8.22832 13.0193 9.025 12.2222 10.0009 12.2222C10.9769 12.2222 11.7735 13.0193 11.7735 13.9957C11.7735 14.9721 10.9769 15.7692 10.0009 15.7692C9.025 15.7692 8.22832 14.9721 8.22832 13.9957ZM18.1271 18.6785C16.9121 19.8941 14.6018 19.9738 13.9246 19.9738C13.2474 19.9738 10.9171 19.8741 9.72209 18.6785C9.54284 18.4992 9.54284 18.2003 9.72209 18.0209C9.90135 17.8416 10.2001 17.8416 10.3794 18.0209C11.1362 18.7782 12.7694 19.0571 13.9445 19.0571C15.1196 19.0571 16.7329 18.7782 17.5097 18.0209C17.6889 17.8416 17.9877 17.8416 18.1669 18.0209C18.3063 18.2202 18.3063 18.4992 18.1271 18.6785ZM17.8084 15.7692C16.8325 15.7692 16.0358 14.9721 16.0358 13.9957C16.0358 13.0193 16.8325 12.2222 17.8084 12.2222C18.7843 12.2222 19.581 13.0193 19.581 13.9957C19.581 14.9721 18.7843 15.7692 17.8084 15.7692Z" fill="white"></path>
</svg>
