<?xml version="1.0" encoding="UTF-8"?>
<svg xmlns="http://www.w3.org/2000/svg" width="40" height="41" viewBox="0 0 40 41" fill="none">
  <path fill-rule="evenodd" clip-rule="evenodd" d="M6.71862 19.4902C13.4295 16.6678 17.9045 14.807 20.1435 13.908C26.5365 11.3411 27.8649 10.8953 28.7307 10.8805C28.9212 10.8773 29.347 10.9228 29.6228 11.1389C29.8557 11.3213 29.9197 11.5677 29.9504 11.7407C29.9811 11.9137 30.0192 12.3077 29.9889 12.6155C29.6424 16.1294 28.1434 24.6566 27.3808 28.5922C27.0581 30.2575 26.4227 30.8158 25.8076 30.8705C24.4707 30.9892 23.4556 30.0176 22.1608 29.1983C20.1348 27.9162 18.9901 27.1181 17.0235 25.867C14.7507 24.4212 16.224 23.6266 17.5193 22.3279C17.8583 21.988 23.7484 16.8162 23.8624 16.3471C23.8767 16.2884 23.8899 16.0697 23.7553 15.9542C23.6207 15.8387 23.422 15.8782 23.2787 15.9096C23.0754 15.9541 19.8388 18.0193 13.5686 22.1051C12.6499 22.7141 11.8177 23.0108 11.0721 22.9953C10.2502 22.9781 8.6691 22.5466 7.49372 22.1778C6.05207 21.7254 4.90628 21.4863 5.00606 20.718C5.05802 20.3178 5.62888 19.9086 6.71862 19.4902Z" fill="white"></path>
</svg>
