<?xml version="1.0" encoding="UTF-8"?>
<svg xmlns="http://www.w3.org/2000/svg" width="27" height="26" viewBox="0 0 27 26" fill="none">
  <path d="M11.7895 15.8081V9.32535L17.4872 12.5668L11.7895 15.8081ZM24.4634 7.28552C24.2126 6.34151 23.4739 5.59805 22.536 5.34575C20.836 4.88721 14.019 4.88721 14.019 4.88721C14.019 4.88721 7.20205 4.88721 5.50203 5.34575C4.56415 5.59805 3.82543 6.34151 3.57471 7.28552C3.11914 8.99659 3.11914 12.5667 3.11914 12.5667C3.11914 12.5667 3.11914 16.1366 3.57471 17.8478C3.82543 18.7919 4.56406 19.5353 5.50203 19.7878C7.20205 20.2461 14.019 20.2461 14.019 20.2461C14.019 20.2461 20.836 20.2461 22.536 19.7878C23.4739 19.5353 24.2126 18.7919 24.4634 17.8478C24.9189 16.1366 24.9189 12.5666 24.9189 12.5666C24.9189 12.5666 24.9189 8.99659 24.4634 7.28552Z" fill="white"></path>
</svg>
